<svg xmlns="http://www.w3.org/2000/svg" version="1.1" xmlns:xlink="http://www.w3.org/1999/xlink" xmlns:svgjs="http://svgjs.dev/svgjs" width="1000" height="1125" viewBox="0 0 1000 1125"><g transform="matrix(1,0,0,1,1.7053025658242404e-13,0)"><svg viewBox="0 0 320 360" data-background-color="#4d7c0f" preserveAspectRatio="xMidYMid meet" height="1125" width="1000" xmlns="http://www.w3.org/2000/svg" xmlns:xlink="http://www.w3.org/1999/xlink"><g id="tight-bounds" transform="matrix(1,0,0,1,0,0)"><svg viewBox="0 0 320 360" height="360" width="320"><g><svg></svg></g><g><svg viewBox="0 0 320 360" height="360" width="320"><g><path xmlns="http://www.w3.org/2000/svg" d="M20.961 227.22l3.726 4.658-1.863-6.056c-0.466-2.795-3.726 0.466-1.863 1.398M25.153 224.425c1.397 2.329 2.795 4.658 2.795 6.987 0 3.261 2.795 4.658 5.123 5.589-3.261-3.726-5.124-13.974-7.918-12.576M204.017 26.929c7.918 0 15.371-0.932 23.756 0.931 20.495 5.124 37.729 15.371 49.374 29.811l32.606 52.169c1.397 13.042 4.192 27.482 3.726 43.319 3.261 0 2.795-4.658 6.521-5.59-3.726 9.316-5.59 20.961-6.521 34.469-2.329-7.453 0-18.632 0.466-24.687-3.261 5.124-5.124 1.397-5.124-0.932 0.466-3.726-1.397-3.261-2.795-4.658-5.124-4.658-8.384-9.782-12.11-17.7 2.329-6.055 2.795-14.905-4.658-19.563-2.329-1.397-5.124-3.726-6.521-7.453-1.863-5.124-5.124-11.179-4.193-19.097 0.466-2.329-6.987 5.124-11.179 1.863-18.166-12.576-36.332-27.016-58.224-39.127-11.645 0-20.029-4.192-24.221-9.316-3.726-4.658-0.932-10.713 4.658-11.179 3.261 0 6.987-0.932 9.782 0.932 0.466-1.863 2.329-4.192 4.657-4.192M157.904 16.215l0.932 0.466c4.658 0.932 6.987 7.453 12.11 5.124 0 3.261 0.466 6.521-0.466 8.85-1.397 3.726-5.59 3.726-8.85 3.726-31.208-1.863-49.374 11.179-68.471 22.358-5.124 3.261-10.713 5.59-14.906 9.782-20.029 18.632-41.921 35.866-47.045 70.335l-4.192 38.195c-0.466 4.192-5.124 8.384-4.192 13.508l3.26 22.824c-3.261-3.261-5.124 0.932-4.192 2.795 0.466 1.397 2.329 6.055 5.124 1.863 3.726 6.987 7.453 20.495 12.576 26.55 15.837 18.632 36.332 35.4 53.101 52.169 4.192-0.932 7.453-0.932 8.384-3.727 1.397 2.795-1.397 5.59-3.726 6.056 7.453 4.658 15.837 8.85 27.016 9.781 14.44 0.932 27.948 3.261 40.524 6.522 6.521-1.863 13.042-2.795 20.029-3.261 2.329 0 3.726-3.726 6.521-4.658l0.466-4.658c2.795 4.192 2.329-1.397 0.466-4.192 3.261 2.795 4.192 5.124 5.589 6.987 0-1.397 3.726-6.521 3.727-0.466l0.931-6.055c1.397-0.932 1.863 5.124 3.261 0.931 1.397-4.192 4.192-0.932 6.987-2.329-0.932 1.863-0.466 5.59 2.794 3.261l3.727-3.261c2.329 5.59 6.055 3.261 7.918 2.329 20.495-13.042 40.99-28.413 60.553-43.784l-0.466 6.055 2.329-7.453c2.329 2.329 4.192 0.466 5.124-0.931 2.795-4.658 6.521-9.316 12.577-13.508-7.453 20.029-16.303 35.866-27.482 48.908l-4.658 5.59c0 3.261-0.932 7.453-4.658 7.918-1.863 0.466-5.59-0.932-8.384 1.863-1.397 1.863 3.261 5.59-0.466 2.795-3.261-2.329-6.521 0-10.248 0.932-2.795 0.932 1.863 3.726 2.795 5.589 0.932 1.863 1.863 3.726 1.398 6.056l-5.124-5.59c-6.055 3.261-9.782 9.316-14.906 13.974-2.329 1.863-1.397 5.124-1.397 7.918-3.261 0-6.987-0.932-8.85 0.932-1.397 1.863-0.932 4.658-0.932 7.453-4.658-0.466-5.124-7.453-9.315-6.056-4.192 0.932-8.85 1.397-12.577 3.727 2.795 5.59-4.658 2.329-3.726 3.26-6.987-4.192-13.042-7.453-20.495-4.658-15.837-5.124-35.4-2.795-49.84-0.931 0-2.329 0.466-4.658-0.466-5.124-0.932 2.329-3.726 1.397-3.26 1.397-8.85-6.055-17.7-9.782-27.016-14.905-8.384 0.932-16.303-3.261-18.632-5.59-6.521-6.055-13.974-2.795-20.029-4.192-13.042-3.261-17.7-16.769-19.098-26.084-0.932-4.658-4.658-6.521-6.055-6.056-6.055-19.563-15.371-37.263-22.824-55.429-1.863-4.658-1.397-9.316-1.397-14.44 2.329 0.932 4.658 0.466 4.192-2.794-2.329-15.371-7.918-27.016-13.974-38.195 3.261-15.837 3.726-34.469 11.179-48.443 6.521-12.576 18.632-19.098 27.016-29.811 2.795-3.726 2.795-8.85 5.59-12.11 9.316-9.316 18.632-19.098 28.879-27.482 4.658-3.726 10.247 0 17.234-1.397 2.329-8.384 11.645-15.837 20.495-13.508 3.726 0.932 11.179-8.85 13.508-9.782 3.726-1.397 1.863 3.726 1.863 6.987 8.85-6.987 20.961-10.713 32.14-14.906" fill="#ffffff" fill-rule="nonzero" stroke="none" stroke-width="1" stroke-linecap="butt" stroke-linejoin="miter" stroke-miterlimit="10" stroke-dasharray="" stroke-dashoffset="0" font-family="none" font-weight="none" font-size="none" text-anchor="none" style="mix-blend-mode: normal" data-fill-palette-color="tertiary"></path></g><g transform="matrix(1,0,0,1,64,118.8866745544596)"><svg viewBox="0 0 192 122.22665089108078" height="122.22665089108078" width="192"><g><svg viewBox="0 0 192 122.22665089108078" height="122.22665089108078" width="192"><g><svg viewBox="0 0 192 122.22665089108078" height="122.22665089108078" width="192"><g transform="matrix(1,0,0,1,0,73.6417403388381)"><svg viewBox="0 0 192 48.584910552242675" height="48.584910552242675" width="192"><g><svg viewBox="0 0 192 48.584910552242675" height="48.584910552242675" width="192"><g><svg viewBox="0 0 192 48.584910552242675" height="48.584910552242675" width="192"><g transform="matrix(1,0,0,1,0,0)"><svg width="192" viewBox="1.4600000381469727 -37.5 188.30999755859375 47.65999984741211" height="48.584910552242675" data-palette-color="#ffffff"><path d="M24.61-35.55L24.61-31.69 15.26-31.69 15.26 0 10.79 0 10.79-31.69 1.46-31.69 1.46-35.55 24.61-35.55ZM44.58 0L40.09 0Q39.69-0.85 39.52-2.88L39.52-2.88Q37.23 0.49 33.66 0.49L33.66 0.49Q30.08 0.49 28.06-1.53 26.05-3.54 26.05-7.2L26.05-7.2Q26.05-11.23 28.78-13.6 31.52-15.97 36.28-16.02L36.28-16.02 39.45-16.02 39.45-18.82Q39.45-21.19 38.4-22.19 37.35-23.19 35.2-23.19L35.2-23.19Q33.25-23.19 32.03-22.03 30.81-20.87 30.81-19.09L30.81-19.09 26.49-19.09Q26.49-21.12 27.68-22.96 28.88-24.8 30.91-25.85 32.93-26.9 35.42-26.9L35.42-26.9Q39.48-26.9 41.59-24.89 43.7-22.88 43.75-19.02L43.75-19.02 43.75-5.69Q43.77-2.64 44.58-0.39L44.58-0.39 44.58 0ZM34.32-3.44L34.32-3.44Q35.91-3.44 37.35-4.32 38.79-5.2 39.45-6.52L39.45-6.52 39.45-12.82 37.01-12.82Q33.93-12.77 32.15-11.44 30.37-10.11 30.37-7.71L30.37-7.71Q30.37-5.47 31.27-4.46 32.18-3.44 34.32-3.44ZM64.25 0L57.08-12.08 54.78-9.45 54.78 0 50.46 0 50.46-37.5 54.78-37.5 54.78-15.06 63.01-26.42 68.18-26.42 59.79-15.38 69.28 0 64.25 0ZM81.93 0.49L81.93 0.49Q76.99 0.49 74.36-2.45 71.72-5.4 71.67-11.08L71.67-11.08 71.67-14.28Q71.67-20.19 74.25-23.55 76.82-26.9 81.44-26.9L81.44-26.9Q86.08-26.9 88.37-23.95 90.67-21 90.72-14.75L90.72-14.75 90.72-11.91 75.97-11.91 75.97-11.3Q75.97-7.06 77.57-5.13 79.17-3.2 82.17-3.2L82.17-3.2Q84.07-3.2 85.53-3.92 86.98-4.64 88.25-6.2L88.25-6.2 90.5-3.47Q87.69 0.49 81.93 0.49ZM81.44-23.19L81.44-23.19Q78.75-23.19 77.46-21.35 76.16-19.51 75.99-15.63L75.99-15.63 86.39-15.63 86.39-16.21Q86.22-19.97 85.04-21.58 83.85-23.19 81.44-23.19ZM113.98 0L109.49 0Q109.1-0.85 108.93-2.88L108.93-2.88Q106.63 0.49 103.07 0.49L103.07 0.49Q99.48 0.49 97.46-1.53 95.45-3.54 95.45-7.2L95.45-7.2Q95.45-11.23 98.18-13.6 100.92-15.97 105.68-16.02L105.68-16.02 108.85-16.02 108.85-18.82Q108.85-21.19 107.8-22.19 106.75-23.19 104.6-23.19L104.6-23.19Q102.65-23.19 101.43-22.03 100.21-20.87 100.21-19.09L100.21-19.09 95.89-19.09Q95.89-21.12 97.08-22.96 98.28-24.8 100.31-25.85 102.33-26.9 104.82-26.9L104.82-26.9Q108.88-26.9 110.99-24.89 113.1-22.88 113.15-19.02L113.15-19.02 113.15-5.69Q113.17-2.64 113.98-0.39L113.98-0.39 113.98 0ZM103.73-3.44L103.73-3.44Q105.31-3.44 106.75-4.32 108.19-5.2 108.85-6.52L108.85-6.52 108.85-12.82 106.41-12.82Q103.33-12.77 101.55-11.44 99.77-10.11 99.77-7.71L99.77-7.71Q99.77-5.47 100.67-4.46 101.58-3.44 103.73-3.44ZM141.22-35.55L141.22-31.69 131.87-31.69 131.87 0 127.4 0 127.4-31.69 118.08-31.69 118.08-35.55 141.22-35.55ZM154.92-26.56L154.94-22.36Q154.04-22.53 152.99-22.53L152.99-22.53Q149.67-22.53 148.35-18.9L148.35-18.9 148.35 0 144.03 0 144.03-26.42 148.23-26.42 148.3-23.73Q150.03-26.9 153.21-26.9L153.21-26.9Q154.23-26.9 154.92-26.56L154.92-26.56ZM163.9-26.42L163.9 0 159.58 0 159.58-26.42 163.9-26.42ZM164.24-33.42L164.24-33.42Q164.24-32.32 163.63-31.59 163.02-30.86 161.77-30.86L161.77-30.86Q160.55-30.86 159.94-31.59 159.33-32.32 159.33-33.42 159.33-34.52 159.94-35.28 160.55-36.04 161.77-36.04 163-36.04 163.62-35.27 164.24-34.5 164.24-33.42ZM189.77-14.82L189.77-11.94Q189.77-5.66 187.52-2.59 185.26 0.49 181.13 0.49L181.13 0.49Q177.15 0.49 175-2.51L175-2.51 175 10.16 170.71 10.16 170.71-26.42 174.61-26.42 174.83-23.49Q177.01-26.9 181.06-26.9L181.06-26.9Q185.4-26.9 187.55-23.88 189.7-20.85 189.77-14.82L189.77-14.82ZM185.48-11.77L185.48-14.4Q185.48-18.85 184.11-20.96 182.74-23.07 179.72-23.07L179.72-23.07Q176.62-23.07 175-19.97L175-19.97 175-6.23Q176.59-3.2 179.77-3.2L179.77-3.2Q182.69-3.2 184.07-5.31 185.45-7.42 185.48-11.77L185.48-11.77Z" opacity="1" transform="matrix(1,0,0,1,0,0)" fill="#ffffff" class="undefined-text-0" data-fill-palette-color="primary" id="text-0"></path></svg></g></svg></g></svg></g></svg></g><g transform="matrix(1,0,0,1,36.672,0)"><svg viewBox="0 0 118.656 66.55203585141264" height="66.55203585141264" width="118.656"><g><svg xmlns="http://www.w3.org/2000/svg" xmlns:xlink="http://www.w3.org/1999/xlink" version="1.1" x="0" y="0" viewBox="1.3000001907348633 22.799999237060547 97.29999542236328 54.57383346557617" style="enable-background:new 0 0 100 100;" xml:space="preserve" height="66.55203585141264" width="118.656" class="icon-icon-0" data-fill-palette-color="accent" id="icon-0"><g fill="#ffffff" data-fill-palette-color="accent"><path d="M89.3 53.1c-6-3.9-13.1-6.2-20.2-7-7.2-0.8-14.5 0.1-21.4 2.1-6.9 2-13.5 5.4-19.1 9.9-2.8 2.3-5.4 4.8-7.7 7.6-2.3 2.8-4.2 5.9-5.8 9.2-0.4 0.9-0.1 1.9 0.8 2.3 0.9 0.4 1.9 0.1 2.4-0.8l0 0c1.5-3 3.4-5.8 5.5-8.4 2.1-2.6 4.6-5 7.2-7.1 5.3-4.2 11.4-7.4 17.8-9.5 6.5-2.1 13.3-3 20.1-2.5 6.8 0.5 13.5 2.3 19.4 5.7 0.5 0.3 1 0.1 1.3-0.3C89.9 54 89.8 53.4 89.3 53.1z" fill="#ffffff" data-fill-palette-color="accent"></path><path d="M14.1 31.5c-7.1 0-12.8 5.7-12.8 12.8 0 7.1 12.8 23.8 12.8 23.8S27 51.4 27 44.3C27 37.3 21.2 31.5 14.1 31.5zM14.1 51.9c-4.1 0-7.5-3.4-7.5-7.5s3.4-7.5 7.5-7.5 7.5 3.4 7.5 7.5S18.3 51.9 14.1 51.9z" fill="#ffffff" data-fill-palette-color="accent"></path><path d="M98.6 32.6c0-5.4-4.4-9.8-9.8-9.8-5.4 0-9.8 4.4-9.8 9.8 0 5.4 9.8 18.2 9.8 18.2S98.6 38.1 98.6 32.6zM83.1 32.6c0-3.2 2.6-5.7 5.7-5.7s5.7 2.6 5.7 5.7c0 3.2-2.6 5.7-5.7 5.7S83.1 35.8 83.1 32.6z" fill="#ffffff" data-fill-palette-color="accent"></path></g></svg></g></svg></g><g></g></svg></g></svg></g></svg></g></svg></g><defs></defs></svg><rect width="320" height="360" fill="none" stroke="none" visibility="hidden"></rect></g></svg></g></svg>